<svg width="125" height="125" viewBox="0 0 125 125" fill="none" xmlns="http://www.w3.org/2000/svg">
<path d="M124.8 69.9V54.9H99.7C96.5 54.9 93.6 53 92.4 50V49.9C91.2 46.9 91.8 43.5 94.1 41.3L111.9 23.5L101.3 12.9L83.5 30.7C81.2 33 77.8 33.6 74.9 32.4H74.8C71.8 31.2 69.9 28.3 69.9 25.1V0H54.9V25.1C54.9 28.3 53 31.2 50 32.4H49.9C46.9 33.6 43.5 33 41.3 30.7L23.5 12.9L12.9 23.5L30.7 41.3C33 43.6 33.6 47 32.4 49.9V50C31.2 53 28.3 54.9 25.1 54.9H0V69.9H25.1C28.3 69.9 31.2 71.8 32.4 74.8V74.9C33.6 77.9 33 81.3 30.7 83.5L12.9 101.3L23.5 111.9L41.3 94.1C43.6 91.8 47 91.2 49.9 92.4H50C53 93.6 54.9 96.5 54.9 99.7V124.8H69.9V99.7C69.9 96.5 71.8 93.6 74.8 92.4H74.9C77.9 91.2 81.3 91.8 83.5 94.1L101.3 111.9L111.9 101.3L94.1 83.5C91.8 81.2 91.2 77.8 92.4 74.9V74.8C93.6 71.8 96.5 69.9 99.7 69.9H124.8Z" fill="#101010"/>
</svg>
